{"title":"2 Days In New York 2012 HDRip XviD HS","uid":7425661,"size":1532476240,"categoryP":"video","categoryS":"movies","magnet":"?xt=urn:btih:11cbfa1ffcdf2bf2cd64bf5a36749da938621c30&amp;dn=2+Days+In+New+York+2012+HDRip+XviD+HS&amp;tr=udp%3A%2F%2Ftracker.openbittorrent.com%3A80&amp;tr=udp%3A%2F%2Fopen.demonii.com%3A1337&amp;tr=udp%3A%2F%2Ftracker.coppersurfer.tk%3A6969&amp;tr=udp%3A%2F%2Fexodus.desync.com%3A6969","seeders":0,"leechers":1,"uploader":".BONE.","files":2,"time":1341797197,"description":" &lt;a href=&quot;http://www.imdb.com/title/tt1602472/&quot; rel=&quot;nofollow&quot; target=&quot;_NEW&quot;&gt;http://www.imdb.com/title/tt1602472/&lt;/a&gt;\n\n\n\nFormat : AVI\n\nFormat/Info : Audio Video Interleave\n\nFormat profile : OpenDML\n\nFile size : 1.43 GiB\n\nDuration : 1h 35mn\n\nOverall bit rate : 2 140 Kbps\n\nWriting application : Lavf52.103.0\n\n\n\nVideo\n\nID : 1\n\nFormat : MPEG-4 Visual\n\nFormat profile : Simple@L1\n\nFormat settings, BVOP : No\n\nFormat settings, QPel : No\n\nFormat settings, GMC : No warppoints\n\nFormat settings, Matrix : Default (H.263)\n\nCodec ID : FMP4\n\nDuration : 1h 35mn\n\nBit rate : 1 998 Kbps\n\nWidth : 640 pixels\n\nHeight : 346 pixels\n\nDisplay aspect ratio : 1.85:1\n\nFrame rate : 23.976 fps\n\nColor space : YUV\n\nChroma subsampling : 4:2:0\n\nBit depth : 8 bits\n\nScan type : Progressive\n\nCompression mode : Lossy\n\nBits/(Pixel*Frame) : 0.376\n\nStream size : 1.33 GiB (93%)\n\nWriting library : Lavc52.116.0\n\n\n\nAudio\n\nID : 0\n\nFormat : MPEG Audio\n\nFormat version : Version 1\n\nFormat profile : Layer 3\n\nMode : Joint stereo\n\nMode extension : MS Stereo\n\nCodec ID : 55\n\nCodec ID/Hint : MP3\n\nDuration : 1h 35mn\n\nBit rate mode : Constant\n\nBit rate : 128 Kbps\n\nChannel(s) : 2 channels\n\nSampling rate : 44.1 KHz\n\nCompression mode : Lossy\n\nStream size : 87.4 MiB (6%)\n\nAlignment : Aligned on interleaves\n\nInterleave, duration : 42 ms (1.00 video frame)\n\nWriting library : LAME3.98.4\n\n\n","torrent":{"xt":"urn:btih:11cbfa1ffcdf2bf2cd64bf5a36749da938621c30","amp;dn":"2+Days+In+New+York+2012+HDRip+XviD+HS","amp;tr":["udp%3A%2F%2Ftracker.openbittorrent.com%3A80","udp%3A%2F%2Fopen.demonii.com%3A1337","udp%3A%2F%2Ftracker.coppersurfer.tk%3A6969","udp%3A%2F%2Fexodus.desync.com%3A6969"],"infoHash":"11cbfa1ffcdf2bf2cd64bf5a36749da938621c30","infoHashBuffer":{"type":"Buffer","data":[17,203,250,31,252,223,43,242,205,100,191,90,54,116,157,169,56,98,28,48]},"announce":[],"urlList":[]}}